# xmcd
#
# Track frame offsets:
#	150
#	14882
#	36545
#	57807
#	78965
#	100487
#	123665
#	136837
#	163012
#	179172
#
# Disc length: 2629 seconds
#
# Revision: 0
# Processed by: cddbd v1.5.1PL0 Copyright (c) Steve Scherf et al.
# Submitted via: dBpowerAMP V4.0
#
DISCID=910a430a
DTITLE=Smoky Greenwell - Smoke Alarm
DYEAR=1995
DGENRE=Blues
TTITLE0=Smoke Alarm
TTITLE1=Something For Bubba
TTITLE2=Space Stroll
TTITLE3=Chitlins Con Carne
TTITLE4=Georgia On My Mind
TTITLE5=Vicki
TTITLE6=Jumpin' With Symphony Sid
TTITLE7=Comin' Home Baby
TTITLE8=Mudbug Rag
TTITLE9=House Of The Rising Sun
EXTD=1995 Greenwell Records\nMuscians\nSmoky Greewell - Harmonica (Alto Sax On "Mudbug Rag"]\nJohnny Neel - Piano, B-3 Organ\nTim Loftin - Bass Guitar\nEric Struthers - Guitar\nScotty Hawkins - Drums
EXTT0=
EXTT1=
EXTT2=
EXTT3=
EXTT4=
EXTT5=
EXTT6=
EXTT7=
EXTT8=
EXTT9=
PLAYORDER=
